<svg width="155" height="98" viewBox="0 0 155 98" fill="none" xmlns="http://www.w3.org/2000/svg">
<g clip-path="url(#clip0_27_189)">
<path d="M96.5603 98.1805C64.6433 98.1805 32.8161 98.178 0.988997 98.1974C0.314808 98.1978 0.162558 98.045 0.162965 97.3683C0.182293 65.2431 0.182293 33.1179 0.162965 0.992657C0.162558 0.315978 0.314837 0.163424 0.988992 0.163666C52.1162 0.182049 103.243 0.182049 154.371 0.163666C155.045 0.163424 155.197 0.315978 155.197 0.992657C155.177 33.1179 155.177 65.2431 155.197 97.3683C155.197 98.045 155.045 98.1983 154.371 98.1976C135.131 98.1764 115.89 98.1805 96.5603 98.1805Z" fill="white"/>
<path d="M2.3672 1.08291C11.6544 1.08289 20.854 1.08946 30.0536 1.06908C30.7135 1.06761 30.9741 1.17392 30.9488 1.92259C30.8858 3.78521 30.8913 5.65251 30.9461 7.51566C30.9681 8.26671 30.8298 8.51196 30.0006 8.50637C23.5881 8.4631 17.1751 8.49208 10.7625 8.46818C10.0987 8.46571 9.85899 8.58105 9.86939 9.3236C9.91617 12.6615 9.90757 16.0006 9.87481 19.3388C9.86824 20.008 9.99239 20.2378 10.7287 20.2334C16.5719 20.1979 22.4155 20.2243 28.2588 20.199C28.9259 20.1961 29.1741 20.3153 29.1502 21.0567C29.0893 22.9495 29.1009 24.8464 29.1454 26.7402C29.1613 27.4148 29.0212 27.6371 28.289 27.6327C22.4458 27.5979 16.6023 27.6243 10.759 27.5983C10.0878 27.5953 9.86575 27.7236 9.87039 28.4577C9.90578 34.0518 9.87961 39.6463 9.90432 45.2405C9.90702 45.8513 9.79023 46.053 9.13761 46.0396C6.92105 45.9939 4.70273 46.0046 2.48564 46.0348C1.95257 46.0421 1.7828 45.9364 1.78354 45.3562C1.80212 30.8291 1.79781 16.3019 1.80022 1.77479C1.80028 1.44331 1.65886 0.990863 2.3672 1.08291Z" fill="black"/>
<path d="M55.3149 14.6631C59.0163 16.0772 61.2038 18.7105 62.0276 22.4964C62.2654 23.5889 62.3876 24.7082 62.3897 25.8275C62.4018 32.2636 62.3793 38.6997 62.4167 45.1356C62.4213 45.9167 62.1975 46.0609 61.4781 46.0403C59.5919 45.9864 57.7019 45.9822 55.816 46.0426C55.104 46.0654 54.9674 45.831 55.0097 45.19C55.0649 44.3527 55.0232 43.5089 55.0232 42.6054C54.1127 42.7908 53.4594 43.3908 52.7016 43.7656C50.864 44.6743 49.0818 45.7859 47.0457 46.1243C43.386 46.7326 39.7505 46.7628 36.718 44.1275C35.4013 42.9832 34.6139 41.442 34.2517 39.7094C33.6778 36.9641 33.9017 34.333 35.5085 31.9627C37.0527 29.6848 39.312 28.4772 41.9531 27.9833C45.9731 27.2314 50.0395 27.7346 54.0838 27.6396C54.8779 27.6209 55.1066 27.4429 55.04 26.6584C54.9575 25.6876 55.0983 24.7 54.8134 23.7417C54.2196 21.7445 52.8735 20.4961 50.8878 20.059C49.0336 19.6509 47.1684 19.7479 45.3404 20.3802C43.4184 21.0449 42.2993 22.3305 42.0786 24.3706C41.9987 25.1089 41.8061 25.5335 40.867 25.4791C39.0154 25.3719 37.1531 25.4331 35.2956 25.4577C34.8359 25.4638 34.6942 25.3494 34.6925 24.8664C34.6759 20.0895 37.1675 16.5587 41.6068 14.805C43.2662 14.1495 45.0035 13.8905 46.7782 13.6813C49.6995 13.3368 52.4837 13.8109 55.3149 14.6631Z" fill="black"/>
<path d="M114.586 16.5573C116.571 18.014 117.765 19.9494 118.493 22.1935C119.553 25.4621 119.127 28.8463 119.225 32.1901C119.246 32.9099 118.747 32.6572 118.431 32.6579C112.259 32.6697 106.086 32.6667 99.9142 32.6667C98.119 32.6667 98.0337 32.6746 98.1977 34.4434C98.4776 37.4634 99.7366 39.5607 103.297 40.2451C105.143 40.5999 106.951 40.4934 108.758 39.9073C110.687 39.2817 111.766 38.002 112.005 36.0184C112.056 35.5991 112.188 35.546 112.54 35.5482C114.548 35.5609 116.555 35.5594 118.563 35.5493C118.883 35.5476 119.031 35.6008 119.048 35.9817C119.137 38.0409 118.646 39.9239 117.422 41.5906C115.419 44.3179 112.571 45.5457 109.375 46.2172C107.376 46.6374 105.353 46.6986 103.357 46.5278C100.222 46.2594 97.2785 45.3721 94.8536 43.1599C92.8586 41.3399 91.6554 39.1419 91.3503 36.4643C90.9281 32.7588 91.097 29.0314 91.2256 25.3272C91.3182 22.659 92.3197 20.1963 94.1945 18.1281C96.216 15.8981 98.7033 14.6674 101.588 14.0666C103.077 13.7565 104.573 13.6538 106.08 13.7221C109.154 13.8611 112.05 14.573 114.586 16.5573Z" fill="black"/>
<path d="M128.613 17.371C130.461 15.4912 132.73 14.6213 135.178 14.0633C136.847 13.6829 138.532 13.6299 140.209 13.7357C143.704 13.9561 147.008 14.814 149.568 17.4058C151.295 19.1533 152.219 21.3207 152.507 23.7846C152.594 24.5244 152.631 25.2571 152.672 25.996C152.696 26.4442 152.533 26.5435 152.114 26.5394C150.077 26.5194 148.039 26.5175 146.003 26.5406C145.562 26.5456 145.453 26.4095 145.46 25.9828C145.486 24.5336 145.007 23.2118 144.143 22.09C143.435 21.1694 142.351 20.6837 141.242 20.4504C139.234 20.0285 137.261 20.053 135.349 21.0405C133.795 21.8431 132.985 23.1715 132.737 24.752C132.224 28.0188 132.409 31.3408 132.584 34.6156C132.765 38.0053 134.842 39.9203 138.519 40.0666C139.967 40.1242 141.361 39.9736 142.701 39.3232C144.208 38.5922 144.92 37.3278 145.271 35.7953C145.335 35.5148 145.496 35.2016 145.447 34.9507C145.193 33.6275 146.002 33.7165 146.883 33.738C148.53 33.7782 150.18 33.795 151.825 33.729C152.569 33.6992 152.687 33.9609 152.676 34.6262C152.621 38.0193 151.677 41.038 149.093 43.3701C147.39 44.9073 145.316 45.6904 143.119 46.2053C141.191 46.6571 139.222 46.6908 137.283 46.5319C134.27 46.2849 131.422 45.5223 129.064 43.3901C126.573 41.1374 125.35 38.3758 125.334 35.0483C125.318 31.7708 125.292 28.4927 125.342 25.216C125.388 22.206 126.39 19.5571 128.613 17.371Z" fill="black"/>
<path d="M87.5692 45.6256C87.5849 45.9456 87.4672 46.027 87.2466 46.023C84.2612 45.9698 81.24 46.3176 78.3174 45.4668C74.4756 44.3485 71.9657 41.8625 71.1872 37.7339C70.9675 36.569 71.0424 35.4179 71.036 34.2618C71.0125 29.9924 71.0133 25.7227 71.0407 21.4533C71.045 20.7935 70.9419 20.5054 70.191 20.555C69.0576 20.63 67.9153 20.5586 66.7774 20.5827C66.3439 20.5918 66.1477 20.52 66.1583 20.0072C66.1937 18.2941 66.1956 16.5793 66.1579 14.8663C66.1458 14.3166 66.3525 14.2346 66.8265 14.2479C67.934 14.279 69.0475 14.1961 70.1498 14.2785C70.9489 14.3382 71.0579 14.0373 71.0439 13.3298C70.998 11.0155 71.0636 8.69882 71.005 6.38515C70.9866 5.65609 71.2371 5.56859 71.86 5.58082C73.8065 5.61903 75.7557 5.64104 77.7005 5.57239C78.4922 5.54444 78.611 5.809 78.5964 6.52066C78.5493 8.80478 78.6198 11.0916 78.5565 13.375C78.5346 14.1662 78.7885 14.2897 79.4999 14.2756C81.8655 14.2287 84.2329 14.2776 86.599 14.2439C87.1892 14.2355 87.4307 14.3264 87.4077 15.0007C87.3524 16.6224 87.3564 18.2483 87.4066 19.8704C87.4261 20.4986 87.2015 20.5927 86.6505 20.5864C84.2244 20.559 81.7975 20.5936 79.3715 20.5609C78.7842 20.5529 78.5565 20.6408 78.5613 21.3151C78.5946 26.0053 78.4821 30.6987 78.6156 35.3853C78.6941 38.1395 79.9705 39.284 82.6862 39.5049C84.085 39.6187 85.5017 39.5582 86.9079 39.5089C87.4924 39.4884 87.5919 39.6854 87.5821 40.2168C87.5492 41.9901 87.5696 43.7644 87.5692 45.6256Z" fill="black"/>
<path d="M129.98 58.9448C130.374 61.1216 130.091 63.2461 130.194 65.3588C130.218 65.8343 130.015 65.9164 129.619 65.8795C129.352 65.8546 129.076 65.84 128.813 65.8819C128.247 65.9723 127.912 65.8144 128.004 65.0839C126.928 65.6254 125.953 66.099 124.796 66.0715C123.388 66.038 122.212 65.0872 122.228 63.2837C122.241 61.8589 123.595 60.7828 124.849 60.8166C125.747 60.8409 126.646 60.8024 127.543 60.83C127.939 60.8422 128.042 60.7136 128.038 60.3248C128.03 59.476 127.536 58.9183 126.524 58.7014C125.851 58.5574 124.717 59.0433 124.684 59.634C124.64 60.4019 124.205 60.2862 123.746 60.28C123.716 60.2796 123.686 60.2799 123.656 60.2799C122.324 60.2805 122.09 59.8811 122.694 58.6763C123.515 57.039 125.553 56.6463 127.211 56.906C128.408 57.0934 129.485 57.5964 129.98 58.9448Z" fill="#B20000"/>
<path d="M143.325 58.7074C143.913 59.7745 143.587 60.8673 143.67 61.9164C143.706 62.3755 143.36 62.261 143.118 62.262C141.59 62.2683 140.061 62.2874 138.534 62.2552C137.845 62.2406 137.834 62.4666 138.037 63.0417C138.322 63.8468 138.832 64.2547 139.656 64.2437C140.43 64.2335 141.15 64.3051 141.581 63.2888C141.874 62.5999 142.862 62.9446 143.47 63.0525C143.867 63.1229 143.679 63.7618 143.518 64.1807C143.091 65.2905 142.203 65.8337 141.127 65.9725C139.543 66.1767 137.941 66.2846 136.685 64.9231C136.197 64.3939 135.969 63.7922 135.947 63.107C135.918 62.2056 135.982 61.3003 135.932 60.4009C135.793 57.9121 138.459 56.5879 140.48 56.9378C141.691 57.1476 142.622 57.6416 143.325 58.7074Z" fill="#B20000"/>
<path d="M147.272 62.0897C146.117 61.8576 145.397 61.1477 145.296 60.1445C145.188 59.0684 145.55 57.9163 146.56 57.4674C148.267 56.7087 149.959 56.5856 151.658 57.5282C151.93 57.6789 152.174 57.844 152.334 58.0762C152.723 58.6425 153.129 59.4403 152.766 59.9366C152.427 60.3999 151.54 60.046 150.897 60.0917C150.688 60.1065 150.698 59.9334 150.683 59.7816C150.601 58.9515 149.93 58.7808 149.311 58.6758C148.652 58.5641 148.011 58.758 147.596 59.337C147.306 59.7398 147.356 60.0529 147.887 60.306C148.647 60.6685 149.456 60.7166 150.254 60.8057C150.971 60.8858 151.586 61.1588 152.185 61.5177C153.141 62.0907 153.037 64.3927 152.084 65.1874C150.755 66.2956 147.497 66.3894 146.058 65.273C145.45 64.801 145.256 64.0904 145.116 63.3711C145.097 63.2691 145.147 63.0584 145.179 63.0556C145.622 63.0168 146.068 62.9943 146.513 62.9903C146.944 62.9863 147.354 62.8843 147.5 63.5676C147.605 64.0612 148.162 64.2627 148.716 64.2549C149.394 64.2452 150.112 64.3634 150.586 63.7101C150.904 63.2704 150.608 62.8038 149.98 62.6207C149.116 62.3689 148.182 62.4803 147.272 62.0897Z" fill="#B20000"/>
<path d="M121.02 74.406C121.164 74.079 121.307 74.0053 121.5 74C122.32 73.9773 123 74 124.048 74.0127C124.23 73.9207 124.591 73.9391 124.737 74.0635C125.517 74.7296 126.272 74.4221 127.081 74.1387C128.521 73.6343 129.392 74.5844 129.45 75.7356C129.519 77.0844 129.433 78.4404 129.479 79.791C129.505 80.5645 128.984 80.2834 128.637 80.3036C128.259 80.3256 127.797 80.4864 127.832 79.7517C127.89 78.5525 127.845 77.3485 127.849 76.1466C127.851 75.4613 127.538 75.3986 126.961 75.6071C126.271 75.856 125.953 76.223 126.029 77.0149C126.118 77.9379 126.012 78.878 126.062 79.8068C126.1 80.5075 125.629 80.3304 125.297 80.2977C124.969 80.2654 124.401 80.6203 124.423 79.8263C124.455 78.6853 124.423 77.5427 124.436 76.401C124.441 75.978 124.476 75.5453 123.928 75.4595C123.529 75.3972 122.639 76.1242 122.636 76.4882C122.629 77.5699 122.586 78.6545 122.649 79.7325C122.696 80.5475 122.159 80.2837 121.772 80.3083C121.364 80.3344 120.973 80.4246 120.996 79.7196C121.054 77.9787 121.015 76.2346 121.02 74.406Z" fill="black"/>
<path d="M146.295 75.4823C146.756 76.9607 145.947 77.9931 144.045 78.1394C143.395 78.1894 142.738 78.1473 142.075 78.1473C142.075 78.6976 142.412 78.6906 142.751 78.6895C143.528 78.687 144.306 78.6781 145.083 78.6916C145.963 78.7068 146.723 79.2359 146.898 79.9283C147.116 80.7973 146.73 81.5583 145.831 82.0304C144.752 82.5965 142.547 82.3811 141.849 81.6415C141.828 81.6198 141.792 81.6048 141.785 81.5801C141.414 80.3484 140.538 79.1218 140.884 77.8767C141.097 77.1128 141.093 76.4115 141.154 75.677C141.218 74.8952 141.919 74.1956 142.717 74.1822C143.942 74.1616 145.168 74.1872 146.393 74.1703C146.751 74.1654 146.97 74.2166 146.913 74.6492C146.864 75.0189 147.09 75.5561 146.295 75.4823Z" fill="black"/>
<path d="M110.644 73.1137C108.956 72.8653 108.056 73.8371 108.236 75.3724C108.309 75.9953 108.235 76.6345 108.252 77.2656C108.274 78.1135 108.902 78.7494 109.806 78.8685C110.687 78.9847 111.394 78.5726 111.67 77.7819C111.882 77.1767 112.777 76.794 113.313 77.0702C113.533 77.1837 113.45 77.3757 113.461 77.5411C113.532 78.6179 112.968 79.4954 111.883 80.0047C110.261 80.7666 108.344 80.389 107.125 79.1052C106.775 78.7374 106.657 78.2908 106.608 77.8427C106.421 76.1292 106.099 74.4181 107.135 72.7939C107.55 72.1425 108.182 71.7966 108.741 71.7229C109.972 71.5606 111.273 71.418 112.429 72.1908C113.08 72.6263 113.594 73.8091 113.475 74.5897C113.428 74.8999 113.261 74.9575 113.06 74.888C112.661 74.7503 112.065 75.2863 111.854 74.5885C111.658 73.9384 111.35 73.4184 110.644 73.1137Z" fill="black"/>
<path d="M118.138 60.2788C118.138 58.1793 118.157 56.1694 118.126 54.1603C118.118 53.6057 118.219 53.3923 118.839 53.4039C120.475 53.4343 120.476 53.3994 120.476 55.0205C120.476 57.5999 120.476 60.1793 120.476 62.7588C120.475 65.046 118.9 66.3219 116.653 65.886C116.357 65.8285 116.334 65.698 116.339 65.4702C116.345 65.1104 116.362 64.7487 116.334 64.391C116.304 64.0126 116.41 63.8484 116.821 63.8834C117.789 63.9661 118.094 63.3466 118.131 62.5281C118.164 61.8097 118.138 61.0887 118.138 60.2788Z" fill="#B20000"/>
<path d="M57.3168 71.8166C58.753 72.3251 59.4625 73.4765 59.143 74.8655C58.8134 76.2986 58.0149 76.9248 56.5881 77.0679C55.8911 77.1379 54.9563 76.7203 54.5611 77.2568C54.2311 77.705 54.5142 78.5897 54.4741 79.278C54.4482 79.7232 54.8024 80.3655 53.8075 80.3474C53.0254 80.3332 52.8236 80.1569 52.8439 79.3659C52.9041 77.0255 52.8817 74.6823 52.853 72.3407C52.8465 71.8098 52.9417 71.5796 53.5271 71.6406C54.7606 71.7692 56.0158 71.4497 57.3168 71.8166Z" fill="black"/>
<path d="M134.142 55.7696C134.142 58.957 134.125 62.0546 134.156 65.1517C134.162 65.7401 134.009 65.9028 133.421 65.8903C131.984 65.8596 131.984 65.8917 131.984 64.4291C131.984 61.0009 131.999 57.5725 131.97 54.1446C131.965 53.556 132.116 53.3937 132.704 53.4062C134.141 53.4368 134.142 53.4049 134.142 54.8676C134.142 55.1382 134.142 55.4089 134.142 55.7696Z" fill="#B20000"/>
<path d="M133.643 80.0112C133.112 80.2065 132.648 80.3731 132.132 80.3173C130.952 80.1897 130.412 79.6989 130.374 78.4745C130.345 77.5355 131.172 76.7381 132.142 76.7066C132.68 76.6892 133.218 76.7148 133.756 76.6973C133.942 76.6912 134.236 76.8242 134.292 76.5567C134.347 76.2877 134.401 75.9936 134.156 75.7176C133.564 75.0503 132.575 75.1375 132.166 75.9513C131.801 76.6777 131.158 76.3358 130.683 76.275C130.441 76.244 130.527 75.7092 130.691 75.3598C131.176 74.3322 132.451 73.7656 133.888 73.9982C135.119 74.1975 135.906 75.0737 135.934 76.3355C135.959 77.4448 135.951 78.5553 135.93 79.6647C135.925 79.8851 136.126 80.2865 135.688 80.2947C135.24 80.3031 134.517 80.5407 134.391 80.1467C134.182 79.4972 133.928 79.9757 133.643 80.0112Z" fill="black"/>
<path d="M116.327 74.0979C117.385 73.9352 118.371 73.9108 119.216 74.62C119.723 75.0465 119.94 75.5898 119.937 76.2418C119.933 77.3823 119.948 78.523 119.926 79.6631C119.922 79.8837 120.115 80.3171 119.688 80.2861C119.235 80.2533 118.618 80.6453 118.348 80.0624C118.174 79.6883 118.108 79.8024 117.864 79.9203C117.283 80.2012 116.675 80.3865 116.01 80.316C115.129 80.2226 114.354 79.3798 114.362 78.4979C114.371 77.609 115.145 76.759 116.031 76.7095C116.598 76.6779 117.168 76.7203 117.735 76.6944C117.933 76.6853 118.264 76.8687 118.303 76.4862C118.328 76.2371 118.379 75.9805 118.164 75.7294C117.595 75.0661 116.553 75.1249 116.195 75.9361C115.83 76.7612 115.151 76.3509 114.709 76.2813C114.277 76.2132 114.623 75.6976 114.727 75.3999C114.981 74.6712 115.516 74.2664 116.327 74.0979Z" fill="black"/>
<path d="M98.5756 74.1652C99.7402 73.7843 100.692 73.9971 101.561 74.7649C102.461 75.5594 102.056 76.5898 102.12 77.5316C102.146 77.9219 101.781 77.7763 101.579 77.7797C100.681 77.795 99.7831 77.778 98.8855 77.7936C98.7094 77.7967 98.4363 77.6528 98.3732 77.971C98.3265 78.2068 98.3586 78.4181 98.5533 78.6229C99.1203 79.2195 100.048 79.2566 100.54 78.5288C100.96 77.9067 101.496 78.1252 101.943 78.1923C102.305 78.2466 102.177 78.7464 102.065 79.0152C101.789 79.6795 101.243 80.006 100.55 80.2066C98.9523 80.6695 97.2865 80.1015 96.9363 78.8062C96.4275 76.9239 96.6356 74.6379 98.5756 74.1652Z" fill="black"/>
<path d="M147.845 79.1517C147.138 77.4018 147.328 75.5279 148.327 74.6595C149.313 73.8024 150.438 73.8312 151.602 74.2781C152.686 74.6944 153.112 75.5077 153.017 76.6204C152.945 77.4575 153.217 78.3101 152.703 79.132C152.235 79.8793 151.636 80.2781 150.795 80.3062C149.684 80.3433 148.538 80.4225 147.845 79.1517Z" fill="black"/>
<path d="M84.2462 78.6912C84.2431 77.4976 83.8699 76.3236 84.4553 75.225C84.91 74.3714 86.1915 73.8116 87.424 74.0064C88.5436 74.1835 89.3478 74.8918 89.5761 75.8807C89.7965 76.8351 89.7673 77.7474 89.531 78.6556C89.3238 79.4521 88.8153 80.0147 87.9572 80.1992C86.4133 80.5312 84.7637 80.324 84.2462 78.6912Z" fill="black"/>
<path d="M90.7966 75.3018C91.6227 73.7716 94.3242 73.5029 95.4412 74.7687C95.79 75.1639 96.1087 75.789 95.7089 76.0604C95.3784 76.2848 94.6061 76.506 94.1834 75.7416C93.9034 75.2353 93.3416 75.1189 92.7896 75.3511C92.539 75.4566 92.1648 75.5407 92.257 75.9421C92.3341 76.2777 92.5576 76.5225 92.9417 76.521C93.5317 76.5185 94.0797 76.7229 94.6468 76.8364C95.2408 76.9554 95.7457 77.1866 95.8215 77.8173C95.9093 78.548 95.937 79.275 95.1896 79.813C94.1219 80.5815 91.992 80.4652 91.0228 79.5577C90.5831 79.146 90.4065 78.5351 90.742 78.2616C91.0236 78.0321 91.7739 77.8189 92.1744 78.5129C92.5532 79.1693 93.2054 79.1589 93.8266 78.9765C94.0318 78.9163 94.4184 78.8417 94.3767 78.5013C94.3449 78.241 94.0964 78.0861 93.8419 77.9628C93.2178 77.6605 92.5192 77.8704 91.8791 77.614C90.8488 77.2011 90.4464 76.4439 90.7966 75.3018Z" fill="black"/>
<path d="M69.0927 79.6394C67.859 80.544 66.6104 80.4981 65.3229 79.9646C64.6113 79.6697 64.3548 79.004 64.242 78.3669C64.1134 77.6403 64.1053 76.8546 64.2328 76.1278C64.4942 74.6366 65.8421 73.7981 67.464 73.9968C68.8978 74.1724 69.7736 75.2072 69.7657 76.7394C69.7605 77.7317 69.9611 78.7742 69.0927 79.6394Z" fill="black"/>
<path d="M72.8248 76.363C72.8248 77.5618 72.7843 78.6742 72.8398 79.7818C72.8737 80.458 72.4569 80.3019 72.0965 80.3123C71.7139 80.3233 71.3419 80.4152 71.3703 79.7636C71.4253 78.5056 71.3898 77.2434 71.3833 75.983C71.382 75.7393 71.4891 75.3746 71.0337 75.4464C70.4893 75.5322 70.4668 75.2236 70.4814 74.8191C70.4947 74.4511 70.428 74.0644 71.011 74.1738C71.3512 74.2377 71.3972 74.0269 71.3891 73.7472C71.3374 71.9572 72.6622 71.512 74.2802 71.6591C74.9201 71.7173 74.5359 72.2563 74.6133 72.5699C74.6961 72.9055 74.6 73.1064 74.1622 73.1122C73.7456 73.1177 73.2242 72.8503 72.9625 73.54C72.7861 74.0047 72.7321 74.2084 73.3074 74.1774C73.3968 74.1726 73.4897 74.1621 73.576 74.1793C74.0066 74.2649 74.6654 73.8349 74.6508 74.8371C74.6369 75.8018 73.9867 75.4468 73.6121 75.4139C72.8869 75.3502 72.7218 75.6508 72.8248 76.363Z" fill="black"/>
<path d="M81.2761 72.9263C81.3555 72.3192 80.9137 71.555 82.0661 71.6142C82.8001 71.6519 82.9233 71.8697 82.9086 72.5262C82.8678 74.3528 82.8954 76.1809 82.8941 78.0084C82.8931 79.5302 81.869 80.4448 80.3745 80.3265C79.9207 80.2906 79.9621 79.9997 80.0342 79.7855C80.1561 79.4233 79.6233 78.7706 80.355 78.7145C81.1408 78.6542 81.269 78.2046 81.2729 77.5986C81.2826 76.0708 81.2761 74.5428 81.2761 72.9263Z" fill="black"/>
<path d="M140.615 74.5606C140.689 75.2558 140.635 75.6088 139.813 75.7028C139.069 75.788 138.45 76.3088 138.616 77.3278C138.726 78.0006 138.637 78.7061 138.637 79.397C138.636 80.2277 137.997 80.6283 137.212 80.312C136.975 80.2164 137.021 80.0427 137.021 79.8774C137.017 78.1353 137.013 76.393 137.023 74.6509C137.026 74.227 138.19 73.8579 138.56 74.2677C138.852 74.5904 138.89 74.4739 139.144 74.3216C139.458 74.133 139.816 74.0117 140.206 73.987C140.612 73.9614 140.642 74.1781 140.615 74.5606Z" fill="black"/>
<path d="M60.5939 74.1768C61.0284 74.2907 61.5378 73.8862 61.7369 74.5017C62.0737 74.3643 62.4026 74.2003 62.7495 74.0974C63.0743 74.0011 63.6182 73.7456 63.6057 74.3135C63.5966 74.7262 64.2236 75.5095 63.0818 75.6503C61.9215 75.7934 61.5747 76.277 61.6611 77.2555C61.7348 78.0906 61.6356 78.9401 61.6883 79.7784C61.7362 80.5409 61.2153 80.2955 60.8593 80.304C60.4902 80.3128 60.0208 80.5083 60.0426 79.7633C60.0918 78.0814 60.0633 76.397 60.0536 74.7137C60.0517 74.3783 60.0609 74.1014 60.5939 74.1768Z" fill="black"/>
<path d="M98.7602 72.7992C99.3692 71.5892 100.357 71.4697 101.459 71.6955C101.126 72.9161 100.189 73.474 98.461 73.4448C98.3547 73.1621 98.7792 73.1152 98.7602 72.7992Z" fill="black"/>
<path d="M76.2375 79.2533C76.2784 79.9182 76.099 80.2993 75.422 80.322C74.9553 80.3377 74.5682 80.2215 74.4635 79.7531C74.3775 79.3677 74.3699 78.8105 74.8374 78.7281C75.3067 78.6454 75.9745 78.4081 76.2375 79.2533Z" fill="black"/>
<path d="M42.2074 34.5974C43.0632 33.5306 44.1866 33.0729 45.4144 33.0477C48.4036 32.9861 51.3951 33.0387 54.3854 33.0166C54.8794 33.013 55.1112 33.1287 55.026 33.6511C55.0069 33.768 55.0066 33.8935 55.0257 34.0104C55.2855 35.5996 54.9515 36.7816 53.2569 37.4613C51.2869 38.2514 49.5648 39.626 47.4712 40.1448C45.8438 40.5481 44.1939 40.7659 42.6717 39.7141C41.9249 39.1981 41.142 37.5074 41.3786 36.6438C41.566 35.9596 41.5795 35.1849 42.2074 34.5974Z" fill="white"/>
<path d="M112.128 27.5471C107.662 27.6072 103.259 27.5996 98.857 27.6267C98.3092 27.6301 98.1509 27.5068 98.1653 26.9399C98.2483 23.6627 99.6089 21.2457 102.485 20.3292C105.209 19.461 107.852 19.711 110.152 21.541C111.227 22.3963 111.745 23.6838 112.004 25.0166C112.161 25.8225 112.313 26.6522 112.128 27.5471Z" fill="white"/>
<path d="M127.562 63.3882C126.763 63.7314 126.139 64.3142 125.256 64.2612C124.801 64.2339 124.508 64.0492 124.445 63.6204C124.386 63.2183 124.429 62.8436 124.883 62.5948C125.83 62.0758 126.861 62.1886 127.815 62.3332C128.241 62.3979 128.171 63.0799 127.562 63.3882Z" fill="white"/>
<path d="M138.2 60.6395C137.836 59.9848 138.221 59.4996 138.632 59.1411C139.584 58.3095 141.201 58.8707 141.605 60.078C141.757 60.535 141.684 60.6558 141.219 60.6467C140.239 60.6274 139.259 60.6407 138.2 60.6395Z" fill="white"/>
<path d="M144.148 76.8839C143.952 76.884 143.832 76.8787 143.714 76.8849C143.182 76.9126 142.671 76.89 142.597 76.1961C142.527 75.5344 143.049 75.3637 143.512 75.2818C144.058 75.1853 144.65 75.2564 144.878 75.8829C145.082 76.4392 144.793 76.7789 144.148 76.8839Z" fill="white"/>
<path d="M145.401 80.4622C144.839 81.3588 143.511 81.4646 142.916 80.7338C142.711 80.4813 142.756 80.2213 142.79 79.9752C142.841 79.6128 143.168 79.7851 143.367 79.7806C144.124 79.7636 144.913 79.6789 145.401 80.4622Z" fill="white"/>
<path d="M54.4841 75.2248C54.4838 74.9882 54.4838 74.8379 54.4838 74.6876C54.4837 72.9561 54.4849 72.9436 56.2213 73.1C56.9493 73.1656 57.3736 73.5011 57.382 74.3463C57.3904 75.1939 56.969 75.604 56.2438 75.5906C55.6646 75.5799 54.9731 75.9734 54.4841 75.2248Z" fill="white"/>
<path d="M132.692 79.0493C132.292 78.9464 131.883 78.9018 131.992 78.4021C132.085 77.9734 132.372 77.761 132.826 77.7833C133.155 77.7994 133.485 77.7701 133.813 77.7929C133.991 77.8053 134.265 77.6582 134.313 77.9881C134.352 78.2614 134.204 78.4138 133.949 78.5149C133.547 78.6743 133.16 78.8694 132.692 79.0493Z" fill="white"/>
<path d="M117.98 78.5053C117.579 78.69 117.266 78.9156 116.917 79.0315C116.489 79.174 116.109 78.9302 116.009 78.5437C115.897 78.1088 116.224 77.8352 116.655 77.7946C117.036 77.7588 117.422 77.7898 117.806 77.7857C118.598 77.7774 118.408 78.1077 117.98 78.5053Z" fill="white"/>
<path d="M98.9506 76.523C98.6947 76.4733 98.4051 76.6518 98.3729 76.3258C98.343 76.0228 98.5016 75.7455 98.7115 75.5506C99.1166 75.1744 100.188 75.2911 100.493 75.7576C100.604 75.9275 100.812 76.1506 100.667 76.4032C100.537 76.6307 100.294 76.507 100.104 76.5174C99.7478 76.5369 99.3897 76.523 98.9506 76.523Z" fill="white"/>
<path d="M149.084 76.1136C149.531 75.4029 150.174 75.2418 150.81 75.516C151.441 75.788 151.603 76.4321 151.587 77.1083C151.569 77.8792 151.642 78.652 150.611 78.8976C149.87 79.074 149.107 78.6403 149.072 77.8941C149.045 77.3275 149.068 76.7584 149.084 76.1136Z" fill="white"/>
<path d="M85.8108 75.8811C86.503 75.3739 87.1733 75.1549 87.8279 75.7923C88.2956 76.2476 88.1896 78.1133 87.7545 78.6021C87.0292 79.4169 85.8124 78.8986 85.6447 78.0412C85.5126 77.3659 85.4463 76.627 85.8108 75.8811Z" fill="white"/>
<path d="M67.4936 75.4615C68.5422 76.2505 68.4447 77.2407 68.1518 78.2843C67.9923 78.8529 67.4727 78.9602 67.0616 79.0093C66.6826 79.0547 66.2289 78.8619 65.9868 78.4534C65.5202 77.6661 65.5026 76.8306 65.8784 76.03C66.1765 75.3948 66.8073 75.378 67.4936 75.4615Z" fill="white"/>
</g>
<defs>
<clipPath id="clip0_27_189">
<rect width="155" height="98" fill="white"/>
</clipPath>
</defs>
</svg>
